# xmcd CD database file
#
# Track frame offsets:
#	150
#	15070
#	27882
#	40605
#	54760
#	69067
#	83460
#	95255
#	109352
#	123830
#	137317
#	150775
#
# Disc length: 2189 seconds
#
# Revision: 0
# Processed by: cddbd v1.4PL0 Copyright (c) Steve Scherf et al.
# Submitted via: CDex 1.50beta8
#
DISCID=6b088b0c
DTITLE=Eddie Heywood - Lightly And Politely
DYEAR=1947
DGENRE=Jazz
TTITLE0=Begin The Beguine
TTITLE1=Lover Man (Oh, Where Can You Be?)
TTITLE2=Temptation
TTITLE3=On The Alamo
TTITLE4=I Don't Know Why
TTITLE5=Pom Pom
TTITLE6=It's Only A Paper Moon
TTITLE7=Laura
TTITLE8=Sweet And Lovely
TTITLE9=Yesterdays
TTITLE10=Who's Sorry Now
TTITLE11=Please Don't Talk About Me When I'm Gone
EXTD=YEAR: 1947
EXTT0=
EXTT1=
EXTT2=
EXTT3=
EXTT4=
EXTT5=
EXTT6=
EXTT7=
EXTT8=
EXTT9=
EXTT10=
EXTT11=
PLAYORDER=
